<svg id="visual" viewBox="0 0 900 600" width="900" height="600" xmlns="http://www.w3.org/2000/svg" xmlns:xlink="http://www.w3.org/1999/xlink" version="1.1"><rect x="0" y="0" width="900" height="600" fill="#ffffff"></rect><path d="M0 429L21.5 428C43 427 86 425 128.8 413.5C171.7 402 214.3 381 257.2 383.3C300 385.7 343 411.3 385.8 425.8C428.7 440.3 471.3 443.7 514.2 445.2C557 446.7 600 446.3 642.8 444.3C685.7 442.3 728.3 438.7 771.2 435.2C814 431.7 857 428.3 878.5 426.7L900 425L900 601L878.5 601C857 601 814 601 771.2 601C728.3 601 685.7 601 642.8 601C600 601 557 601 514.2 601C471.3 601 428.7 601 385.8 601C343 601 300 601 257.2 601C214.3 601 171.7 601 128.8 601C86 601 43 601 21.5 601L0 601Z" fill="#67baff"></path><path d="M0 434L21.5 439C43 444 86 454 128.8 449.7C171.7 445.3 214.3 426.7 257.2 427.3C300 428 343 448 385.8 457.8C428.7 467.7 471.3 467.3 514.2 459.5C557 451.7 600 436.3 642.8 428.3C685.7 420.3 728.3 419.7 771.2 422.3C814 425 857 431 878.5 434L900 437L900 601L878.5 601C857 601 814 601 771.2 601C728.3 601 685.7 601 642.8 601C600 601 557 601 514.2 601C471.3 601 428.7 601 385.8 601C343 601 300 601 257.2 601C214.3 601 171.7 601 128.8 601C86 601 43 601 21.5 601L0 601Z" fill="#4f93d4"></path><path d="M0 468L21.5 471.3C43 474.7 86 481.3 128.8 483C171.7 484.7 214.3 481.3 257.2 475C300 468.7 343 459.3 385.8 464C428.7 468.7 471.3 487.3 514.2 495.5C557 503.7 600 501.3 642.8 492.2C685.7 483 728.3 467 771.2 467.2C814 467.3 857 483.7 878.5 491.8L900 500L900 601L878.5 601C857 601 814 601 771.2 601C728.3 601 685.7 601 642.8 601C600 601 557 601 514.2 601C471.3 601 428.7 601 385.8 601C343 601 300 601 257.2 601C214.3 601 171.7 601 128.8 601C86 601 43 601 21.5 601L0 601Z" fill="#376eaa"></path><path d="M0 505L21.5 510C43 515 86 525 128.8 521.3C171.7 517.7 214.3 500.3 257.2 500.3C300 500.3 343 517.7 385.8 524.5C428.7 531.3 471.3 527.7 514.2 521.8C557 516 600 508 642.8 507C685.7 506 728.3 512 771.2 514.8C814 517.7 857 517.3 878.5 517.2L900 517L900 601L878.5 601C857 601 814 601 771.2 601C728.3 601 685.7 601 642.8 601C600 601 557 601 514.2 601C471.3 601 428.7 601 385.8 601C343 601 300 601 257.2 601C214.3 601 171.7 601 128.8 601C86 601 43 601 21.5 601L0 601Z" fill="#1e4c81"></path><path d="M0 573L21.5 568.8C43 564.7 86 556.3 128.8 555.8C171.7 555.3 214.3 562.7 257.2 563C300 563.3 343 556.7 385.8 552.3C428.7 548 471.3 546 514.2 549C557 552 600 560 642.8 557.5C685.7 555 728.3 542 771.2 536.7C814 531.3 857 533.7 878.5 534.8L900 536L900 601L878.5 601C857 601 814 601 771.2 601C728.3 601 685.7 601 642.8 601C600 601 557 601 514.2 601C471.3 601 428.7 601 385.8 601C343 601 300 601 257.2 601C214.3 601 171.7 601 128.8 601C86 601 43 601 21.5 601L0 601Z" fill="#002c5a"></path></svg>